# xmcd
#
# Track frame offsets: 
#        150
#        16352
#        40432
#        57056
#        81063
#        98675
#        124477
#        156378
#        170429
#        196302
#        217667
#        238615
#        255810
#        278764
#        306859
#        321665
#        343142
#
# Disc length: 4773 seconds
#
# Revision: 2
# Processed by: cddbd v1.5.2PL0 Copyright (c) Steve Scherf et al.
# Submitted via: ExactAudioCopy v1.3
#
DISCID=eb12a311
DTITLE=Various Artist - Akella Presents - vol. 04 - Rockin' Blues  CD
DTITLE=2
DYEAR=2013
DGENRE=Blues
TTITLE0=LEE BAKER and The AGITATORS - You Can't Catch Me
TTITLE1=VARGAS BLUES BAND and CHRIS REA - Do You Believe In Love
TTITLE2=FREDDIE and The SCREAMERS - Raised On The Blues
TTITLE3=SMOKIN' JOE KUBEK - Walk On
TTITLE4=LEFTHAND FREDDY and The ACES - Keep My Coo
TTITLE5=LITTLE BLUE - Gold Rain
TTITLE6=GEORGE THOROGOOD - Bad To The Bone
TTITLE7=EDDY CEBALOS - Bumble Be
TTITLE8=SMOKEY WILSON - The Man From Mars
TTITLE9=The BEAT DADDYS - Woman's Got The Power
TTITLE10=MILLER ANDERSON - Fallin' Back Into the Blue
TTITLE11=BOBBY MACK - Doing Alright
TTITLE12=Dr.HECTOR and The GROOVE INJECTORS - Safe In Your Arms Again
TTITLE13=TINO GONZALES - One More Mile
TTITLE14=The JUKE JOINTS - Addicted To The Blues
TTITLE15=PAT BOYACK and The PROWLERS - I Known It's Over
TTITLE16=SUNNY LAND BLUES BAND - Bang For The Buck
EXTD=
EXTT0=
EXTT1=
EXTT2=
EXTT3=
EXTT4=
EXTT5=
EXTT6=
EXTT7=
EXTT8=
EXTT9=
EXTT10=
EXTT11=
EXTT12=
EXTT13=
EXTT14=
EXTT15=
EXTT16=
PLAYORDER=
